<svg width="19" height="19" viewBox="0 0 19 19" fill="none" xmlns="http://www.w3.org/2000/svg">
<g clip-path="url(#clip0_121_27)">
<path d="M16.068 7.75424L10.1305 13.6917C10.0477 13.7748 9.94939 13.8406 9.84113 13.8856C9.73288 13.9306 9.61681 13.9537 9.49959 13.9537C9.38237 13.9537 9.26631 13.9306 9.15805 13.8856C9.04979 13.8406 8.95147 13.7748 8.86873 13.6917L2.93123 7.75424C2.76392 7.58693 2.66992 7.36 2.66992 7.12338C2.66992 6.88676 2.76392 6.65984 2.93123 6.49252C3.09855 6.32521 3.32547 6.23121 3.56209 6.23121C3.79871 6.23121 4.02564 6.32521 4.19295 6.49252L9.50033 11.7999L14.8077 6.49178C14.975 6.32447 15.202 6.23047 15.4386 6.23047C15.6752 6.23047 15.9021 6.32447 16.0694 6.49178C16.2367 6.65909 16.3307 6.88602 16.3307 7.12264C16.3307 7.35926 16.2367 7.58618 16.0694 7.7535L16.068 7.75424Z" fill="#575757"/>
</g>
<defs>
<clipPath id="clip0_121_27">
<rect width="19" height="19" fill="white"/>
</clipPath>
</defs>
</svg>
